#!OML:ASF X:\für Bonn\!DataBase\2005_08_11_Bastian_Final\c3d\Bastian.ASF
:FULLY-SPECIFIED
:DEGREES
151
root 8.19691 8.21469 -4.42194 178.691 86.5684 -165.576
lowerback 70.3326 -6.00666 5.97595
upperback 19.4704 4.91846 6.934
thorax 0.665101 4.30865 3.62151
lowerneck -4.43137 -12.6836 -1.02456
upperneck -22.1729 -14.7547 16.7269
head -4.51114 -8.21316 5.61409
rclavicle 2.54444e-014 -1.66979e-014
rhumerus 27.3628 1.05651 -48.1851
rradius 30.392
rwrist 8.3811
rhand -46.1366 2.99316
rfingers 7.12502
rthumb -18.8771 -26.1109
lclavicle 2.54444e-014 -1.66979e-014
lhumerus 1.44364 -25.8488 81.2988
lradius 42.3767
lwrist 22.7632
lhand -13.0246 -10.121
lfingers 7.12502
lthumb 13.0695 19.4495
rfemur -79.1609 -11.578 20.4102
rtibia 134.91
rfoot -32.4722 -0.717304
rtoes -8.81386
lfemur -58.7117 32.3269 -26.9274
ltibia 146.919
lfoot -50.3132 -9.30097
ltoes 4.54733
152
root 8.20273 8.18463 -4.42248 178.086 86.5587 -166.107
lowerback 70.2987 -5.98502 5.90395
upperback 19.5282 4.89872 6.92638
thorax 0.724751 4.30235 3.65132
lowerneck -4.55027 -12.6096 -0.987919
upperneck -22.2204 -14.6598 16.5958
head -4.53033 -8.15361 5.56652
rclavicle -8.90555e-014 -3.81667e-014
rhumerus 27.3257 0.904085 -48.3501
rradius 30.3575
rwrist 8.80782
rhand -46.2856 3.07279
rfingers 7.12502
rthumb -19.0204 -26.0172
lclavicle -8.90555e-014 -3.81667e-014
lhumerus 1.4467 -25.9059 81.2623
lradius 42.5236
lwrist 22.7877
lhand -13.0326 -10.0216
lfingers 7.12502
lthumb 13.0618 19.5494
rfemur -79.2938 -11.6953 20.3905
rtibia 135.171
rfoot -32.5367 -0.689527
rtoes -8.69265
lfemur -58.6629 32.6824 -26.9052
ltibia 147.167
lfoot -50.3952 -9.4145
ltoes 5.01813
153
root 8.20756 8.15562 -4.42191 178.491 86.5569 -165.632
lowerback 70.275 -5.97222 5.88413
upperback 19.58 4.90494 6.92415
thorax 0.781398 4.31058 3.65736
lowerneck -4.69567 -12.5552 -0.93921
upperneck -22.266 -14.594 16.4605
head -4.54361 -8.10831 5.51338
rclavicle -5.725e-014 -5.80451e-014
rhumerus 27.2762 0.801157 -48.4484
rradius 30.341
rwrist 9.09208
rhand -46.4799 3.1796
rfingers 7.12502
rthumb -19.2072 -25.8919
lclavicle -5.725e-014 -5.80451e-014
lhumerus 1.47331 -25.9944 81.2315
lradius 42.6444
lwrist 22.8271
lhand -12.9954 -9.94491
lfingers 7.12502
lthumb 13.0977 19.6238
rfemur -79.411 -11.7394 20.4483
rtibia 135.395
rfoot -32.5721 -0.743428
rtoes -8.73874
lfemur -58.6269 33.0939 -26.7765
ltibia 147.419
lfoot -50.4856 -9.53631
ltoes 5.25164
154
root 8.21256 8.12881 -4.42281 179.194 86.5388 -164.869
lowerback 70.2287 -5.9769 5.86029
upperback 19.6463 4.89073 6.93997
thorax 0.851796 4.30697 3.69345
lowerneck -4.84936 -12.482 -0.955316
upperneck -22.3468 -14.4966 16.3337
head -4.56223 -8.04268 5.47392
rclavicle 0 -5.32743e-014
rhumerus 27.2955 0.693027 -48.5614
rradius 30.2734
rwrist 9.48995
rhand -46.6517 3.19825
rfingers 7.12502
rthumb -19.3724 -25.8568
lclavicle 0 -5.32743e-014
lhumerus 1.48111 -25.9771 81.2521
lradius 42.7427
lwrist 22.8071
lhand -12.9731 -9.90449
lfingers 7.12502
lthumb 13.1192 19.6628
rfemur -79.5149 -11.8216 20.5325
rtibia 135.608
rfoot -32.6046 -0.856678
rtoes -8.84107
lfemur -58.5545 33.4831 -26.6448
ltibia 147.643
lfoot -50.6197 -9.64874
ltoes 5.53865
155
root 8.21636 8.10451 -4.42223 180.197 86.5324 -163.796
lowerback 70.2086 -5.97433 5.86451
upperback 19.7022 4.90447 6.94492
thorax 0.914698 4.31983 3.69618
lowerneck -5.03125 -12.4379 -0.941132
upperneck -22.4043 -14.4413 16.2192
head -4.56716 -7.99989 5.4296
rclavicle -6.36111e-015 3.97569e-014
rhumerus 27.2759 0.553202 -48.69
rradius 30.2201
rwrist 9.81862
rhand -46.8711 3.21924
rfingers 7.12502
rthumb -19.5833 -25.8145
lclavicle -6.36111e-015 3.97569e-014
lhumerus 1.51844 -26.0942 81.217
lradius 42.8707
lwrist 22.8567
lhand -12.9795 -9.80828
lfingers 7.12502
lthumb 13.113 19.7594
rfemur -79.619 -11.8412 20.6341
rtibia 135.795
rfoot -32.618 -0.881644
rtoes -8.69508
lfemur -58.4841 33.9353 -26.4475
ltibia 147.863
lfoot -50.7391 -9.77716
ltoes 5.72066
156
root 8.21958 8.08302 -4.42252 181.518 86.5316 -162.436
lowerback 70.1866 -5.98065 5.88841
upperback 19.7466 4.91647 6.94275
thorax 0.96694 4.33216 3.68308
lowerneck -5.26097 -12.3877 -0.904849
upperneck -22.4618 -14.3841 16.0571
head -4.571 -7.95238 5.3648
rclavicle -7.31528e-014 -6.2816e-014
rhumerus 27.2949 0.382956 -48.855
rradius 30.1046
rwrist 10.1958
rhand -47.1004 3.26775
rfingers 7.12502
rthumb -19.8038 -25.7433
lclavicle -7.31528e-014 -6.2816e-014
lhumerus 1.575 -26.1452 81.2003
lradius 42.9251
lwrist 22.8568
lhand -12.9642 -9.81083
lfingers 7.12502
lthumb 13.1277 19.7559
rfemur -79.713 -11.8229 20.7631
rtibia 135.954
rfoot -32.6122 -1.0301
rtoes -8.95421
lfemur -58.4462 34.345 -26.2779
ltibia 148.051
lfoot -50.8657 -9.8177
ltoes 5.8388
157
root 8.22257 8.06491 -4.42144 182.61 86.5362 -161.295
lowerback 70.1801 -5.96419 5.87765
upperback 19.8 4.93538 6.94919
thorax 1.02589 4.34476 3.69153
lowerneck -5.4575 -12.3329 -0.902329
upperneck -22.5896 -14.3017 15.9619
head -4.59477 -7.89663 5.33185
rclavicle 3.81667e-014 -1.51076e-014
rhumerus 27.3395 0.217695 -49.0125
rradius 29.9944
rwrist 10.5359
rhand -47.3191 3.3264
rfingers 7.12502
rthumb -20.0141 -25.6629
lclavicle 3.81667e-014 -1.51076e-014
lhumerus 1.65959 -26.2077 81.1655
lradius 42.9912
lwrist 22.8634
lhand -12.9509 -9.77748
lfingers 7.12502
lthumb 13.1405 19.7885
rfemur -79.7762 -11.7855 20.8669
rtibia 136.083
rfoot -32.6327 -1.12348
rtoes -8.98725
lfemur -58.3799 34.7366 -26.0691
ltibia 148.208
lfoot -50.9436 -9.96908
ltoes 6.06395
158
root 8.22421 8.05064 -4.42109 182.337 86.5341 -161.533
lowerback 70.2104 -5.94713 5.8341
upperback 19.8235 4.93755 6.95374
thorax 1.05077 4.3452 3.71588
lowerneck -5.66213 -12.2897 -0.967183
upperneck -22.7002 -14.2363 15.8782
head -4.60349 -7.84399 5.3097
rclavicle -5.08889e-014 -1.27222e-014
rhumerus 27.3817 0.0755991 -49.132
rradius 29.8981
rwrist 10.8265
rhand -47.59 3.36958
rfingers 7.12502
rthumb -20.2744 -25.5922
lclavicle -5.08889e-014 -1.27222e-014
lhumerus 1.76048 -26.2499 81.1456
lradius 43.0437
lwrist 22.8865
lhand -12.9018 -9.73318
lfingers 7.12502
lthumb 13.1879 19.8297
rfemur -79.8617 -11.8473 20.8771
rtibia 136.208
rfoot -32.6408 -1.13946
rtoes -8.92394
lfemur -58.3365 34.911 -26.0534
ltibia 148.31
lfoot -51.0123 -10.0189
ltoes 6.26814
